# Blender 3.3.1
# www.blender.org
mtllib armsModel3.mtl
o my4.004
v -0.061531 0.032376 -0.022246
v -0.061531 0.031996 -0.118478
v -0.061393 0.032335 -0.022246
v -0.061668 0.032335 -0.022246
v -0.061800 0.032194 -0.022246
v -0.061668 0.031948 -0.118478
v -0.061800 0.031807 -0.118478
v -0.061800 0.029993 -0.118478
v -0.061800 0.029498 -0.022246
v -0.061668 0.029853 -0.118478
v -0.061668 0.029358 -0.022246
v -0.061531 0.029803 -0.118478
v -0.061531 0.029317 -0.022246
v -0.061393 0.029853 -0.118478
v -0.061261 0.029993 -0.118478
v -0.061393 0.029358 -0.022246
v -0.061261 0.029498 -0.022246
v -0.061261 0.032194 -0.022246
v -0.061261 0.031807 -0.118478
v -0.061393 0.031948 -0.118478
vn 0.5373 0.8434 -0.0034
vn 0.5379 0.8430 -0.0034
vn -0.0011 1.0000 -0.0040
vn -0.0007 1.0000 -0.0040
vn -0.5367 0.8437 -0.0034
vn -0.5362 0.8441 -0.0034
vn -0.9294 0.3690 -0.0015
vn -0.9288 0.3706 -0.0015
vn -0.9296 -0.3686 -0.0019
vn -0.9290 -0.3701 -0.0019
vn -0.5374 -0.8433 -0.0043
vn -0.0011 -1.0000 -0.0051
vn 0.5382 -0.8428 -0.0043
vn 0.5371 -0.8435 -0.0043
vn 0.9290 -0.3701 -0.0019
vn 0.9300 -0.3676 -0.0019
vn 0.9292 0.3696 -0.0015
vn 0.9304 0.3666 -0.0015
vt 0.032598 0.003906
vt 0.068410 0.996094
vt 0.032598 0.996093
vt 0.068410 0.003906
vt 0.031137 0.003906
vt 0.066956 0.996094
vt 0.065007 0.996094
vt 0.066956 0.003906
vt 0.065007 0.003906
vt 0.043124 0.003906
vt 0.043124 0.996094
vt 0.041175 0.003906
vt 0.041175 0.996094
vt 0.039722 0.003906
vt 0.003906 0.996093
vt 0.039722 0.996094
vt 0.003906 0.003906
vt 0.005367 0.996093
vt 0.007311 0.996093
vt 0.005367 0.003906
vt 0.007311 0.003906
vt 0.029193 0.003906
vt 0.029193 0.996093
vt 0.031137 0.996093
s 1
g my4.004_M_Glasses
usemtl M_Glasses
f 3/5/1 20/24/2 2/3/3 1/1/4
f 1/2/4 2/4/3 6/8/5 4/6/6
f 6/8/5 7/9/7 5/7/8 4/6/6
f 5/7/8 7/9/7 8/10/9 9/11/10
f 11/13/11 9/11/10 8/10/9 10/12/11
f 12/14/12 13/16/12 11/13/11 10/12/11
f 14/18/13 16/20/14 13/17/12 12/15/12
f 17/21/15 16/20/14 14/18/13 15/19/16
f 18/22/17 17/21/15 15/19/16 19/23/18
f 3/5/1 18/22/17 19/23/18 20/24/2
o my4.006
v 0.068129 0.032376 -0.022246
v 0.068129 0.031996 -0.118478
v 0.068267 0.032335 -0.022246
v 0.067992 0.032335 -0.022246
v 0.067860 0.032194 -0.022246
v 0.067992 0.031948 -0.118478
v 0.067860 0.031807 -0.118478
v 0.067860 0.029993 -0.118478
v 0.067860 0.029498 -0.022246
v 0.067992 0.029853 -0.118478
v 0.067992 0.029358 -0.022246
v 0.068129 0.029803 -0.118478
v 0.068129 0.029317 -0.022246
v 0.068267 0.029853 -0.118478
v 0.068399 0.029993 -0.118478
v 0.068267 0.029358 -0.022246
v 0.068399 0.029498 -0.022246
v 0.068399 0.032194 -0.022246
v 0.068399 0.031807 -0.118478
v 0.068267 0.031948 -0.118478
vn 0.5372 0.8435 -0.0034
vn 0.5379 0.8430 -0.0034
vn -0.0011 1.0000 -0.0040
vn -0.0007 1.0000 -0.0040
vn -0.5372 0.8434 -0.0034
vn -0.5366 0.8438 -0.0034
vn -0.9294 0.3690 -0.0015
vn -0.9288 0.3705 -0.0015
vn -0.9298 -0.3680 -0.0019
vn -0.9290 -0.3701 -0.0019
vn -0.5371 -0.8435 -0.0043
vn -0.5374 -0.8433 -0.0043
vn -0.0011 -1.0000 -0.0051
vn 0.5381 -0.8429 -0.0043
vn 0.5370 -0.8435 -0.0043
vn 0.9290 -0.3701 -0.0019
vn 0.9300 -0.3674 -0.0019
vn 0.9293 0.3692 -0.0015
vn 0.9303 0.3669 -0.0015
vt 0.032598 0.003906
vt 0.068410 0.996094
vt 0.032598 0.996093
vt 0.068410 0.003906
vt 0.031137 0.003906
vt 0.066956 0.996094
vt 0.065007 0.996094
vt 0.066956 0.003906
vt 0.065007 0.003906
vt 0.043124 0.003906
vt 0.043124 0.996094
vt 0.041175 0.003906
vt 0.041175 0.996094
vt 0.039722 0.003906
vt 0.003906 0.996093
vt 0.039722 0.996094
vt 0.003906 0.003906
vt 0.005367 0.996093
vt 0.007311 0.996093
vt 0.005367 0.003906
vt 0.007311 0.003906
vt 0.029193 0.003906
vt 0.029193 0.996093
vt 0.031137 0.996093
s 1
g my4.006_M_Glasses
usemtl M_Glasses
f 23/29/19 40/48/20 22/27/21 21/25/22
f 21/26/22 22/28/21 26/32/23 24/30/24
f 26/32/23 27/33/25 25/31/26 24/30/24
f 25/31/26 27/33/25 28/34/27 29/35/28
f 31/37/29 29/35/28 28/34/27 30/36/30
f 32/38/31 33/40/31 31/37/29 30/36/30
f 34/42/32 36/44/33 33/41/31 32/39/31
f 37/45/34 36/44/33 34/42/32 35/43/35
f 38/46/36 37/45/34 35/43/35 39/47/37
f 23/29/19 38/46/36 39/47/37 40/48/20
