# Blender 3.3.1
# www.blender.org
mtllib armsModel6.mtl
o glasses_2.011
v 0.069107 0.029102 -0.022682
v 0.069086 0.029230 -0.022598
v 0.069107 0.030675 -0.022682
v 0.067422 0.029102 -0.022682
v 0.071472 0.031266 -0.065349
v 0.077014 0.033430 -0.108016
v 0.071569 0.031266 -0.065349
v 0.073253 0.032840 -0.065349
v 0.077014 0.035004 -0.108016
v 0.071569 0.032840 -0.065349
v 0.075076 0.035004 -0.108016
v 0.067422 0.030675 -0.022682
v 0.067442 0.030547 -0.022598
v 0.067506 0.030144 -0.022518
v 0.069086 0.030547 -0.022598
v 0.067442 0.029230 -0.022598
v 0.067506 0.029633 -0.022518
v 0.069022 0.029633 -0.022518
v 0.067506 0.029633 -0.020229
v 0.067506 0.030144 -0.020229
v 0.069022 0.029633 -0.020229
v 0.067506 0.029633 -0.019496
v 0.067506 0.030144 -0.019496
v 0.069022 0.029633 -0.019496
v 0.069022 0.030144 -0.019496
v 0.069022 0.030144 -0.020229
v 0.069022 0.030144 -0.022518
v 0.075076 0.033430 -0.108016
vn 0.6788 0.5327 0.5055
vn 0.5739 0.2625 0.7757
vn 0.5739 -0.2625 0.7757
vn 0.4995 -0.7942 0.3459
vn -0.5739 -0.2625 0.7757
vn -0.6563 -0.6701 0.3467
vn 0.5161 -0.8565 0.0038
vn 0.8773 0.4681 0.1059
vn -0.7246 -0.6819 -0.0997
vn 0.2987 -0.5922 0.7483
vn 0.5617 0.2870 0.7760
vn -0.5762 -0.5165 0.6334
vn -0.5528 0.5112 0.6581
vn -0.7247 0.6884 -0.0299
vn -0.6628 0.6482 0.3749
vn -0.5739 0.2625 0.7757
vn -0.6947 -0.3301 0.6391
vn -0.6946 0.3300 0.6393
vn 0.6947 0.3301 0.6391
vn 0.6947 -0.3301 0.6391
vn -0.7276 -0.6860 -0.0000
vn -0.7276 0.6860 -0.0000
vn 0.7276 -0.6860 -0.0000
vn -0.5835 -0.5501 0.5974
vn -0.5835 0.5501 0.5974
vn 0.5835 -0.5501 0.5974
vn 0.5835 0.5501 0.5974
vn 0.7276 0.6860 -0.0000
vt 0.069571 0.454367
vt 0.014832 0.437796
vt 0.038085 0.000342
vt 0.068953 0.454266
vt 0.015458 0.438198
vt 0.022248 0.437455
vt 0.054929 0.000343
vt 0.067040 0.462796
vt 0.069571 0.445939
vt 0.046507 -0.000000
vt 0.014832 0.438256
vt 0.014832 0.219069
vt 0.038085 0.219101
vt 0.014832 0.000341
vt 0.038085 0.437860
vt 0.046507 0.218759
vt 0.014832 0.219302
vt 0.022248 0.218727
vt 0.054929 0.219031
vt 0.022248 0.000000
vt 0.054929 0.437720
vt 0.046507 0.218689
vt 0.007416 0.218953
vt 0.046507 0.437378
vt 0.007416 -0.000000
vt 0.046507 -0.000000
vt 0.007416 0.437907
vt 0.067040 0.454367
vt 0.007999 0.438365
vt 0.067633 0.454469
vt 0.069522 0.454787
vt 0.009875 0.438861
vt 0.354231 0.678643
vt 0.067633 0.462694
vt 0.021664 0.437913
vt 0.014205 0.438657
vt 0.068953 0.446040
vt 0.067040 0.446359
vt 0.012282 0.438974
vt 0.361820 0.647682
vt 0.067040 0.453947
vt 0.354231 0.647682
vt 0.017380 0.438518
vt 0.011729 0.450692
vt 0.361820 0.635950
vt 0.009322 0.450579
vt 0.354231 0.666912
vt 0.354231 0.635950
vt 0.017922 0.450236
vt 0.011552 0.454437
vt 0.361820 0.632201
vt 0.022174 0.462410
vt 0.009145 0.454324
vt 0.019765 0.462410
vt 0.354231 0.663162
vt 0.354231 0.632201
vt 0.022174 0.469998
vt 0.018095 0.453981
vt 0.019765 0.469998
vt 0.020502 0.453870
vt 0.361820 0.663162
vt 0.020329 0.450125
vt 0.361820 0.666912
vt 0.069522 0.462376
vt 0.361820 0.678643
vt 0.019787 0.438407
vt 0.046507 0.437517
vt 0.014832 0.000349
s 1
g glasses_2.011_gold.02
usemtl gold.02
f 3/6/1 15/35/2 2/5/3 1/2/4
f 1/1/4 2/4/3 16/37/5 4/9/6
f 1/2/4 5/12/7 8/18/8 3/6/1
f 4/10/6 7/16/9 5/13/7 1/3/4
f 5/12/7 6/14/10 9/20/11 8/18/8
f 7/16/9 28/67/12 6/15/10 5/13/7
f 8/19/8 9/21/11 11/24/13 10/22/14
f 3/7/1 8/19/8 10/22/14 12/26/15
f 10/23/14 11/25/13 28/68/12 7/17/9
f 12/27/15 10/23/14 7/17/9 4/11/6
f 4/11/6 16/36/5 13/29/16 12/27/15
f 12/28/15 13/30/16 15/34/2 3/8/1
f 16/36/5 17/39/17 14/32/18 13/29/16
f 13/30/16 14/31/18 27/64/19 15/34/2
f 2/4/3 18/41/20 17/38/17 16/37/5
f 17/39/17 19/44/21 20/46/22 14/32/18
f 17/40/17 18/42/20 21/48/23 19/45/21
f 19/44/21 22/50/24 23/53/25 20/46/22
f 19/45/21 21/48/23 24/56/26 22/51/24
f 22/52/24 24/57/26 25/59/27 23/54/25
f 24/58/26 21/49/23 26/62/28 25/60/27
f 23/55/25 25/61/27 26/63/28 20/47/22
f 21/49/23 18/43/20 27/66/19 26/62/28
f 20/47/22 26/63/28 27/65/19 14/33/18
f 15/35/2 27/66/19 18/43/20 2/5/3
o glasses_2.005
v -0.068438 0.029102 -0.022682
v -0.068438 0.030675 -0.022682
v -0.066754 0.029102 -0.022682
v -0.068418 0.029230 -0.022598
v -0.070768 0.031266 -0.065349
v -0.069084 0.031266 -0.065349
v -0.070768 0.032840 -0.065349
v -0.072655 0.033430 -0.108016
v -0.072655 0.035004 -0.108016
v -0.070971 0.033430 -0.108016
v -0.070971 0.035004 -0.108016
v -0.069084 0.032840 -0.065349
v -0.066754 0.030675 -0.022682
v -0.066774 0.030547 -0.022598
v -0.066838 0.030144 -0.022518
v -0.068418 0.030547 -0.022598
v -0.066774 0.029230 -0.022598
v -0.066838 0.029633 -0.022518
v -0.068354 0.029633 -0.022518
v -0.066838 0.029633 -0.020229
v -0.066838 0.029633 -0.019496
v -0.066838 0.030144 -0.020229
v -0.068354 0.029633 -0.020229
v -0.068354 0.029633 -0.019496
v -0.068354 0.030144 -0.020229
v -0.068354 0.030144 -0.019496
v -0.068354 0.030144 -0.022518
v -0.066838 0.030144 -0.019496
vn -0.6235 -0.6752 0.3942
vn -0.6278 0.6517 0.4255
vn -0.7269 0.6832 0.0705
vn -0.7287 -0.6849 0.0014
vn -0.5732 -0.2622 0.7763
vn -0.5730 0.2631 0.7762
vn 0.6475 -0.6715 0.3602
vn 0.7246 -0.6855 -0.0707
vn 0.5739 -0.2626 0.7757
vn -0.4640 -0.4987 0.7321
vn 0.5690 -0.4991 0.6535
vn -0.4420 0.4930 0.7494
vn 0.7265 0.6872 -0.0009
vn 0.5464 0.4942 0.6762
vn 0.6536 0.6492 0.3892
vn 0.5739 0.2625 0.7757
vn 0.6947 0.3301 0.6391
vn 0.6947 -0.3301 0.6391
vn -0.6948 0.3298 0.6391
vn -0.6948 -0.3299 0.6391
vn 0.7276 0.6860 -0.0000
vn 0.7276 -0.6860 -0.0000
vn -0.7276 -0.6860 -0.0000
vn 0.5835 -0.5501 0.5974
vn -0.5835 -0.5501 0.5974
vn 0.5835 0.5501 0.5974
vn -0.5835 0.5501 0.5974
vn -0.7276 0.6860 -0.0000
vt 0.029664 0.437796
vt 0.038085 0.000342
vt 0.069571 0.437510
vt 0.022248 0.437455
vt 0.054929 0.000343
vt 0.019765 0.453981
vt 0.029664 0.000000
vt 0.069571 0.445939
vt 0.000000 0.438256
vt 0.068953 0.437612
vt 0.029037 0.438198
vt 0.038085 0.219101
vt 0.029664 0.219069
vt 0.029664 0.218759
vt 0.000000 0.219302
vt 0.022248 0.218727
vt 0.054929 0.219031
vt 0.038085 0.437860
vt 0.029664 0.000341
vt 0.022248 0.000000
vt 0.054929 0.437720
vt 0.029664 0.437517
vt 0.000000 0.000349
vt 0.007416 0.000000
vt 0.063350 0.437378
vt 0.007416 0.218953
vt 0.063350 0.218689
vt 0.063350 0.000000
vt 0.019765 0.462410
vt 0.007416 0.437907
vt 0.006832 0.438365
vt 0.020359 0.462308
vt 0.022248 0.461990
vt 0.004956 0.438861
vt 0.361820 0.663162
vt 0.020359 0.454083
vt 0.022832 0.437913
vt 0.000627 0.438657
vt 0.068953 0.445837
vt 0.067040 0.445519
vt 0.002550 0.438974
vt 0.354231 0.632201
vt 0.067040 0.437930
vt 0.361820 0.632201
vt 0.027115 0.438518
vt 0.354231 0.620469
vt 0.003103 0.450692
vt 0.354231 0.616720
vt 0.003280 0.454437
vt 0.069522 0.470385
vt 0.005510 0.450579
vt 0.361820 0.651431
vt 0.361820 0.620469
vt 0.026574 0.450236
vt 0.361820 0.616720
vt 0.026401 0.453981
vt 0.069522 0.462796
vt 0.024167 0.450125
vt 0.354231 0.651431
vt 0.023994 0.453870
vt 0.354231 0.647682
vt 0.067113 0.462796
vt 0.022248 0.454401
vt 0.354231 0.663162
vt 0.024708 0.438407
vt 0.005686 0.454324
vt 0.361820 0.647682
vt 0.067113 0.470385
s 1
g glasses_2.005_gold.02
usemtl gold.02
f 29/69/29 30/72/30 35/84/31 33/81/32
f 30/72/30 29/69/29 32/79/33 44/105/34
f 31/75/35 29/70/29 33/80/32 34/82/36
f 29/71/29 31/76/35 45/107/37 32/78/33
f 34/82/36 33/80/32 36/86/38 38/90/39
f 33/81/32 35/84/31 37/88/40 36/87/38
f 40/94/41 34/83/36 38/91/39 39/92/42
f 35/85/31 40/95/41 39/93/42 37/89/40
f 41/98/43 31/77/35 34/83/36 40/94/41
f 30/73/30 41/96/43 40/95/41 35/85/31
f 41/97/43 30/74/30 44/104/34 42/100/44
f 31/77/35 41/98/43 42/99/44 45/106/37
f 45/106/37 42/99/44 43/102/45 46/109/46
f 42/100/44 44/104/34 55/131/47 43/101/45
f 32/78/33 45/107/37 46/108/46 47/111/48
f 46/109/46 43/102/45 50/119/49 48/115/50
f 46/110/46 48/114/50 51/121/51 47/112/48
f 48/114/50 49/116/52 52/123/53 51/121/51
f 48/115/50 50/119/49 56/134/54 49/117/52
f 52/124/53 54/128/55 53/126/56 51/122/51
f 51/122/51 53/126/56 55/133/47 47/113/48
f 56/135/54 50/120/49 53/127/56 54/129/55
f 50/120/49 43/103/45 55/132/47 53/127/56
f 44/105/34 32/79/33 47/113/48 55/133/47
f 49/118/52 56/136/54 54/130/55 52/125/53
