# Blender 3.3.1
# www.blender.org
mtllib armsModel5.mtl
o gl5.011
v 0.087116 0.045157 -0.093852
v 0.087115 0.045849 -0.093872
v 0.087116 0.044230 -0.093825
v 0.085201 0.045500 -0.076794
v 0.088500 0.044601 -0.106770
v 0.088502 0.043834 -0.106676
v 0.088499 0.045147 -0.106837
v 0.089716 0.045411 -0.106777
v 0.089963 0.045175 -0.106729
v 0.088745 0.045392 -0.106849
v 0.088345 0.046117 -0.093781
v 0.088593 0.045858 -0.093753
v 0.086505 0.046799 -0.076678
v 0.087362 0.046111 -0.093860
v 0.085447 0.046798 -0.076771
v 0.085201 0.046494 -0.076793
v 0.083013 0.047271 -0.057147
v 0.082766 0.046943 -0.057172
v 0.080352 0.047261 -0.038949
v 0.084143 0.047271 -0.057033
v 0.084390 0.046944 -0.057008
v 0.081495 0.047260 -0.038818
v 0.078820 0.047251 -0.022305
v 0.081741 0.046952 -0.038790
v 0.079074 0.046956 -0.022325
v 0.081741 0.045583 -0.038790
v 0.084390 0.045649 -0.057010
v 0.081741 0.043949 -0.038790
v 0.079074 0.045525 -0.022325
v 0.078793 0.045524 -0.022086
v 0.079074 0.043843 -0.022325
v 0.079074 0.042558 -0.022325
v 0.078793 0.043840 -0.022086
v 0.077589 0.043838 -0.021951
v 0.078793 0.042559 -0.022086
v 0.078820 0.042261 -0.022305
v 0.077589 0.042555 -0.021951
v 0.077634 0.042258 -0.022172
v 0.077377 0.042553 -0.022136
v 0.077377 0.043839 -0.022136
v 0.080106 0.042723 -0.038977
v 0.080352 0.042414 -0.038949
v 0.080106 0.043949 -0.038977
v 0.082767 0.042913 -0.057176
v 0.085202 0.043354 -0.076792
v 0.083013 0.042585 -0.057151
v 0.082767 0.044069 -0.057176
v 0.082766 0.045649 -0.057174
v 0.085202 0.044237 -0.076794
v 0.080106 0.045584 -0.038977
v 0.077377 0.045524 -0.022136
v 0.080106 0.046952 -0.038977
v 0.077377 0.046957 -0.022136
v 0.077589 0.046953 -0.021951
v 0.077634 0.047252 -0.022172
v 0.077589 0.045524 -0.021951
v 0.078793 0.046952 -0.022086
v 0.085449 0.043052 -0.076770
v 0.084143 0.042585 -0.057037
v 0.081495 0.042414 -0.038818
v 0.086506 0.043053 -0.076678
v 0.084390 0.042912 -0.057012
v 0.084390 0.044069 -0.057012
v 0.081741 0.042722 -0.038790
v 0.086753 0.043356 -0.076656
v 0.086753 0.044239 -0.076658
v 0.088593 0.043628 -0.093686
v 0.088593 0.044239 -0.093705
v 0.088346 0.043366 -0.093698
v 0.089967 0.043384 -0.106506
v 0.089720 0.043137 -0.106494
v 0.089966 0.043863 -0.106565
v 0.089964 0.044629 -0.106661
v 0.088593 0.045166 -0.093733
v 0.088751 0.043119 -0.106568
v 0.087364 0.043360 -0.093778
v 0.088503 0.043356 -0.106617
v 0.087116 0.043620 -0.093806
v 0.086753 0.045503 -0.076658
v 0.086752 0.046497 -0.076657
vn -0.9940 -0.0045 -0.1096
vn -0.9929 -0.0008 -0.1186
vn -0.9750 0.1858 -0.1220
vn -0.9657 0.2326 -0.1158
vn -0.9948 -0.0170 -0.1004
vn -0.9557 0.2681 -0.1217
vn -0.9939 -0.0043 -0.1100
vn -0.9930 -0.0009 -0.1184
vn -0.9947 -0.0171 -0.1013
vn 0.9660 0.2414 0.0930
vn 0.9509 0.3016 0.0701
vn 0.1807 0.9810 -0.0710
vn 0.2045 0.9786 -0.0232
vn -0.2105 0.9714 -0.1101
vn -0.2119 0.9748 -0.0695
vn 0.9765 0.1874 0.1068
vn 0.2218 0.9751 -0.0065
vn -0.2206 0.9737 -0.0572
vn -0.2230 0.9739 -0.0414
vn 0.2243 0.9744 0.0181
vn -0.9783 0.1576 -0.1344
vn -0.2156 0.9759 -0.0327
vn -0.9777 0.1461 -0.1506
vn 0.2144 0.9762 0.0331
vn 0.9778 0.1463 0.1500
vn 0.9794 0.1577 0.1258
vn 0.9748 0.1428 0.1711
vn 0.2079 0.9769 0.0500
vn -0.2070 0.9782 -0.0173
vn 0.9884 -0.0000 0.1519
vn 0.9847 0.0007 0.1740
vn 0.9913 -0.0000 0.1316
vn 0.9913 0.0001 0.1316
vn 0.9847 0.0013 0.1740
vn 0.2339 0.1095 0.9661
vn 0.2444 -0.0001 0.9697
vn 0.2444 -0.0000 0.9697
vn 0.9762 -0.1596 0.1468
vn 0.9732 -0.1557 0.1691
vn 0.2332 -0.1197 0.9650
vn -0.0353 0.0004 0.9994
vn -0.0230 -0.1285 0.9914
vn -0.0353 -0.0000 0.9994
vn 0.2091 -0.9770 0.0406
vn -0.2061 -0.9782 -0.0267
vn -0.9767 -0.1563 -0.1470
vn -0.9893 -0.0001 -0.1459
vn -0.2146 -0.9758 -0.0421
vn -0.9755 -0.1593 -0.1517
vn -0.9884 -0.0000 -0.1518
vn -0.2218 -0.9740 -0.0459
vn -0.9758 -0.1721 -0.1350
vn -0.9910 -0.0001 -0.1339
vn -0.2176 -0.9749 -0.0465
vn -0.9713 -0.2042 -0.1222
vn -0.9883 -0.0000 -0.1523
vn -0.9592 -0.2620 -0.1066
vn -0.9893 0.0010 -0.1460
vn -0.9789 0.1434 -0.1457
vn -0.0241 0.1175 0.9928
vn 0.2251 -0.9743 0.0046
vn 0.2257 -0.9741 0.0129
vn 0.2156 -0.9762 0.0237
vn 0.9772 -0.1719 0.1245
vn 0.9733 -0.2026 0.1081
vn 0.9934 0.0007 0.1144
vn 0.9620 -0.2531 0.1030
vn 0.9943 0.0042 0.1067
vn 0.2160 -0.9762 0.0206
vn 0.9494 -0.2909 0.1186
vn 0.9947 0.0171 0.1018
vn 0.2126 -0.9732 0.0881
vn 0.9947 0.0168 0.1010
vn 0.9943 0.0042 0.1064
vn -0.1813 -0.9823 0.0480
vn -0.2019 -0.9792 -0.0218
vn -0.9427 -0.3250 -0.0755
vn 0.9935 0.0007 0.1142
vt 0.299034 0.372861
vt 0.295914 0.373172
vt 0.816002 0.452294
vt 0.303220 0.372448
vt 0.312191 0.478561
vt 0.290405 0.292673
vt 0.293927 0.292770
vt 0.287901 0.292604
vt 0.813631 0.536449
vt 0.820875 0.536737
vt 0.822676 0.536665
vt 0.815422 0.536603
vt 0.823323 0.452510
vt 0.825197 0.452555
vt 0.826498 0.344018
vt 0.817872 0.452353
vt 0.820865 0.343849
vt 0.818864 0.343826
vt 0.307731 0.479190
vt 0.824522 0.225537
vt 0.822499 0.225480
vt 0.322636 0.600931
vt 0.829457 0.112150
vt 0.830491 0.225754
vt 0.832512 0.225846
vt 0.835589 0.112426
vt 0.840551 0.009924
vt 0.841091 0.008914
vt 0.837534 0.112516
vt 0.842404 0.010326
vt 0.843673 0.112786
vt 0.838244 0.226126
vt 0.851012 0.113101
vt 0.848643 0.010839
vt 0.848749 0.008737
vt 0.856266 0.011080
vt 0.862102 0.011286
vt 0.856343 0.008961
vt 0.856507 0.002402
vt 0.862174 0.009153
vt 0.863660 0.009431
vt 0.864035 0.011415
vt 0.870435 0.008289
vt 0.862393 0.002552
vt 0.869987 0.010246
vt 0.862446 0.000915
vt 0.871864 0.009551
vt 0.372648 0.815749
vt 0.366873 0.816553
vt 0.856529 0.000761
vt 0.866886 0.113868
vt 0.357304 0.711179
vt 0.864845 0.113751
vt 0.351799 0.711946
vt 0.860356 0.227390
vt 0.340721 0.598388
vt 0.321823 0.477228
vt 0.852141 0.345496
vt 0.858337 0.227241
vt 0.335533 0.599113
vt 0.328441 0.600112
vt 0.317859 0.477772
vt 0.344463 0.712968
vt 0.359311 0.817607
vt 0.848738 0.000711
vt 0.338322 0.713823
vt 0.827512 0.112060
vt 0.352882 0.818502
vt 0.832671 0.007438
vt 0.842398 0.001304
vt 0.842847 0.002758
vt 0.834519 0.007940
vt 0.841000 0.002807
vt 0.848807 0.002377
vt 0.842808 0.008401
vt 0.850151 0.345334
vt 0.852381 0.226847
vt 0.858471 0.113437
vt 0.844543 0.344956
vt 0.850361 0.226741
vt 0.845240 0.226480
vt 0.856532 0.113341
vt 0.842547 0.344846
vt 0.838600 0.344656
vt 0.835591 0.452766
vt 0.832747 0.452716
vt 0.837453 0.452826
vt 0.831211 0.535993
vt 0.833001 0.535924
vt 0.828931 0.536174
vt 0.825276 0.536463
vt 0.828421 0.452628
vt 0.838381 0.536118
vt 0.842855 0.453153
vt 0.840162 0.536311
vt 0.296123 0.292832
vt 0.305974 0.372182
vt 0.844708 0.453316
vt 0.832942 0.344363
vt 0.828497 0.344113
s 1
g gl5.011_Glasses_silver
usemtl Glasses_silver
f 1/1/1 4/5/2 16/19/3 2/2/4
f 5/6/5 1/1/1 2/2/4 7/8/6
f 3/4/7 49/62/8 4/5/2 1/1/1
f 6/7/9 3/4/7 1/1/1 5/6/5
f 12/14/10 9/11/11 8/10/12 11/13/13
f 10/12/14 14/16/15 11/13/13 8/10/12
f 80/100/16 12/14/10 11/13/13 13/15/17
f 14/16/15 15/17/18 13/15/17 11/13/13
f 15/17/18 14/16/15 2/3/4 16/18/3
f 14/16/15 10/12/14 7/9/6 2/3/4
f 15/17/18 17/20/19 20/24/20 13/15/17
f 17/20/19 15/17/18 16/18/3 18/21/21
f 19/23/22 17/20/19 18/21/21 52/67/23
f 17/20/19 19/23/22 22/26/24 20/24/20
f 24/29/25 21/25/26 20/24/20 22/26/24
f 21/25/26 80/100/16 13/15/17 20/24/20
f 25/30/27 24/29/25 22/26/24 23/27/28
f 19/23/22 55/72/29 23/27/28 22/26/24
f 26/31/30 24/29/25 25/30/27 29/34/31
f 27/32/32 21/25/26 24/29/25 26/31/30
f 63/81/33 27/32/32 26/31/30 28/33/30
f 28/33/30 26/31/30 29/34/31 31/36/34
f 29/34/31 25/30/27 57/75/35 30/35/36
f 31/36/34 29/34/31 30/35/36 33/38/37
f 64/82/38 28/33/30 31/36/34 32/37/39
f 32/37/39 31/36/34 33/38/37 35/40/40
f 34/39/41 37/44/42 35/40/40 33/38/37
f 56/74/43 34/39/41 33/38/37 30/35/36
f 35/41/40 36/42/44 32/37/39
f 38/45/45 36/42/44 35/41/40 37/43/42
f 37/43/42 39/47/46 38/45/45
f 37/44/42 34/39/41 40/50/47 39/46/46
f 42/53/48 38/45/45 39/47/46 41/51/49
f 41/52/49 39/48/46 40/49/47 43/54/50
f 46/59/51 42/53/48 41/51/49 44/55/52
f 44/56/52 41/52/49 43/54/50 47/60/53
f 58/76/54 46/59/51 44/55/52 45/58/55
f 45/57/55 44/56/52 47/60/53 49/62/8
f 47/60/53 43/54/50 50/63/56 48/61/53
f 49/62/8 47/60/53 48/61/53 4/5/2
f 78/97/57 45/57/55 49/62/8 3/4/7
f 48/61/53 50/63/56 52/66/23 18/22/21
f 4/5/2 48/61/53 18/22/21 16/19/3
f 43/54/50 40/49/47 51/64/58 50/63/56
f 50/63/56 51/64/58 53/68/59 52/66/23
f 55/72/29 19/23/22 52/67/23 53/69/59
f 56/74/43 54/71/60 53/70/59 51/65/58
f 54/71/60 55/73/29 53/70/59
f 54/71/60 57/75/35 23/28/28 55/73/29
f 54/71/60 56/74/43 30/35/36 57/75/35
f 57/75/35 25/30/27 23/28/28
f 34/39/41 56/74/43 51/65/58 40/50/47
f 46/59/51 58/76/54 61/79/61 59/77/62
f 42/53/48 46/59/51 59/77/62 60/78/63
f 62/80/64 64/82/38 60/78/63 59/77/62
f 65/83/65 62/80/64 59/77/62 61/79/61
f 65/83/65 66/84/66 63/81/33 62/80/64
f 62/80/64 63/81/33 28/33/30 64/82/38
f 67/85/67 68/86/68 66/84/66 65/83/65
f 67/85/67 65/83/65 61/79/61 69/87/69
f 70/88/70 72/90/71 68/86/68 67/85/67
f 70/88/70 67/85/67 69/87/69 71/89/72
f 72/90/71 73/91/73 74/92/74 68/86/68
f 73/91/73 9/11/11 12/14/10 74/92/74
f 75/93/75 76/94/76 78/98/57 77/95/77
f 76/94/76 75/93/75 71/89/72 69/87/69
f 77/96/77 78/97/57 3/4/7 6/7/9
f 76/94/76 58/76/54 45/58/55 78/98/57
f 58/76/54 76/94/76 69/87/69 61/79/61
f 68/86/68 74/92/74 79/99/78 66/84/66
f 74/92/74 12/14/10 80/100/16 79/99/78
f 79/99/78 80/100/16 21/25/26 27/32/32
f 66/84/66 79/99/78 27/32/32 63/81/33
f 64/82/38 32/37/39 36/42/44 60/78/63
f 38/45/45 42/53/48 60/78/63 36/42/44
o gl5.012
v -0.083116 0.045157 -0.093852
v -0.083116 0.044230 -0.093825
v -0.081201 0.045500 -0.076794
v -0.083115 0.045849 -0.093872
v -0.084500 0.044601 -0.106770
v -0.084502 0.043834 -0.106676
v -0.084499 0.045146 -0.106837
v -0.085716 0.045411 -0.106777
v -0.085963 0.045175 -0.106729
v -0.084745 0.045392 -0.106849
v -0.084345 0.046117 -0.093781
v -0.084593 0.045858 -0.093753
v -0.082505 0.046799 -0.076678
v -0.083362 0.046111 -0.093860
v -0.081447 0.046798 -0.076771
v -0.081201 0.046494 -0.076793
v -0.079013 0.047271 -0.057147
v -0.078766 0.046943 -0.057172
v -0.076352 0.047261 -0.038949
v -0.080143 0.047271 -0.057033
v -0.080390 0.046944 -0.057008
v -0.077495 0.047260 -0.038818
v -0.074820 0.047251 -0.022305
v -0.077741 0.046952 -0.038790
v -0.075074 0.046956 -0.022325
v -0.077741 0.045583 -0.038790
v -0.080390 0.045649 -0.057010
v -0.077741 0.043949 -0.038790
v -0.075074 0.045525 -0.022325
v -0.074793 0.045524 -0.022086
v -0.075074 0.043843 -0.022325
v -0.075074 0.042558 -0.022325
v -0.074793 0.043840 -0.022086
v -0.073589 0.043838 -0.021951
v -0.074793 0.042559 -0.022086
v -0.074820 0.042261 -0.022305
v -0.073589 0.042555 -0.021951
v -0.073634 0.042258 -0.022172
v -0.073377 0.042553 -0.022136
v -0.073377 0.043839 -0.022136
v -0.076106 0.042723 -0.038977
v -0.076352 0.042414 -0.038949
v -0.076106 0.043949 -0.038977
v -0.078767 0.042913 -0.057176
v -0.079013 0.042585 -0.057151
v -0.081202 0.043354 -0.076792
v -0.078767 0.044069 -0.057176
v -0.078766 0.045649 -0.057174
v -0.081202 0.044237 -0.076794
v -0.076106 0.045584 -0.038977
v -0.073377 0.045524 -0.022136
v -0.076106 0.046952 -0.038977
v -0.073377 0.046957 -0.022136
v -0.073589 0.046953 -0.021951
v -0.073634 0.047252 -0.022172
v -0.073589 0.045524 -0.021951
v -0.074793 0.046952 -0.022086
v -0.083116 0.043620 -0.093806
v -0.081449 0.043052 -0.076770
v -0.083364 0.043360 -0.093778
v -0.082506 0.043053 -0.076678
v -0.084346 0.043366 -0.093698
v -0.082753 0.043356 -0.076656
v -0.080143 0.042585 -0.057037
v -0.077495 0.042414 -0.038818
v -0.080390 0.042912 -0.057012
v -0.080390 0.044069 -0.057012
v -0.077741 0.042722 -0.038790
v -0.082753 0.044239 -0.076658
v -0.084593 0.044239 -0.093705
v -0.082753 0.045503 -0.076658
v -0.084593 0.045166 -0.093733
v -0.082752 0.046497 -0.076657
v -0.085965 0.044629 -0.106661
v -0.085966 0.043863 -0.106565
v -0.085967 0.043384 -0.106506
v -0.084593 0.043628 -0.093686
v -0.085720 0.043137 -0.106494
v -0.084751 0.043119 -0.106568
v -0.084503 0.043356 -0.106617
vn 0.9939 -0.0044 -0.1099
vn 0.9940 -0.0044 -0.1096
vn 0.9930 -0.0009 -0.1181
vn 0.9930 -0.0008 -0.1185
vn 0.9947 -0.0171 -0.1013
vn 0.9948 -0.0171 -0.1003
vn 0.9657 0.2326 -0.1158
vn 0.9750 0.1858 -0.1220
vn 0.9557 0.2681 -0.1217
vn -0.9660 0.2414 0.0925
vn -0.2047 0.9785 -0.0245
vn -0.1807 0.9810 -0.0710
vn -0.9509 0.3016 0.0700
vn 0.2105 0.9714 -0.1101
vn 0.2120 0.9749 -0.0683
vn -0.9765 0.1874 0.1068
vn -0.2217 0.9751 -0.0049
vn 0.2205 0.9737 -0.0572
vn -0.2243 0.9744 0.0175
vn 0.2230 0.9739 -0.0417
vn 0.9780 0.1575 -0.1365
vn 0.2156 0.9759 -0.0329
vn 0.9778 0.1461 -0.1505
vn -0.2144 0.9762 0.0331
vn -0.9791 0.1577 0.1284
vn -0.9778 0.1463 0.1501
vn -0.9748 0.1428 0.1711
vn -0.2079 0.9769 0.0500
vn 0.2070 0.9782 -0.0172
vn -0.9884 -0.0000 0.1519
vn -0.9847 0.0007 0.1740
vn -0.9912 -0.0000 0.1325
vn -0.9913 0.0001 0.1316
vn -0.9847 -0.0000 0.1741
vn -0.2444 -0.0000 0.9697
vn -0.2339 0.1095 0.9661
vn -0.2444 -0.0002 0.9697
vn -0.9760 -0.1596 0.1482
vn -0.9732 -0.1557 0.1692
vn -0.2332 -0.1198 0.9650
vn 0.0353 0.0004 0.9994
vn 0.0230 -0.1285 0.9914
vn 0.0353 0.0001 0.9994
vn -0.2091 -0.9770 0.0408
vn 0.2061 -0.9782 -0.0267
vn 0.9767 -0.1563 -0.1470
vn 0.9893 0.0019 -0.1460
vn 0.9752 -0.1593 -0.1535
vn 0.9884 -0.0000 -0.1518
vn 0.2146 -0.9758 -0.0423
vn 0.2217 -0.9740 -0.0462
vn 0.9755 -0.1720 -0.1373
vn 0.9910 -0.0001 -0.1339
vn 0.2177 -0.9749 -0.0460
vn 0.9715 -0.2042 -0.1202
vn 0.9883 -0.0000 -0.1523
vn 0.9592 -0.2620 -0.1066
vn 0.9893 -0.0000 -0.1460
vn 0.9789 0.1434 -0.1457
vn 0.0242 0.1175 0.9928
vn 0.2017 -0.9791 -0.0249
vn -0.2250 -0.9743 0.0052
vn -0.2158 -0.9762 0.0231
vn -0.2257 -0.9741 0.0129
vn -0.9619 -0.2531 0.1030
vn -0.9733 -0.2026 0.1081
vn -0.9769 -0.1719 0.1272
vn -0.2156 -0.9762 0.0238
vn -0.9934 0.0007 0.1143
vn -0.9934 0.0007 0.1145
vn -0.9943 0.0042 0.1067
vn -0.9943 0.0042 0.1064
vn -0.9947 0.0170 0.1018
vn -0.9947 0.0169 0.1009
vn -0.9494 -0.2909 0.1186
vn -0.2126 -0.9732 0.0881
vn 0.1813 -0.9823 0.0480
vn 0.9427 -0.3250 -0.0755
vt 0.210338 0.446328
vt 0.214524 0.446740
vt 0.223496 0.340628
vt 0.207218 0.446017
vt 0.876593 0.400188
vt 0.201707 0.526524
vt 0.205230 0.526426
vt 0.199203 0.526593
vt 0.874440 0.316130
vt 0.881675 0.315861
vt 0.883474 0.315937
vt 0.876229 0.315980
vt 0.883906 0.399992
vt 0.885777 0.399951
vt 0.886801 0.508369
vt 0.878461 0.400135
vt 0.881173 0.508524
vt 0.879175 0.508541
vt 0.219037 0.339998
vt 0.884527 0.626712
vt 0.882504 0.626765
vt 0.233944 0.218264
vt 0.889216 0.740065
vt 0.890490 0.626511
vt 0.892510 0.626423
vt 0.895406 0.739795
vt 0.900132 0.844362
vt 0.900666 0.845433
vt 0.897371 0.739709
vt 0.902023 0.843957
vt 0.903575 0.739434
vt 0.898238 0.626160
vt 0.910987 0.739096
vt 0.908459 0.843387
vt 0.908591 0.845546
vt 0.916247 0.843074
vt 0.922114 0.843038
vt 0.916313 0.845194
vt 0.916732 0.851810
vt 0.921894 0.845129
vt 0.923654 0.844423
vt 0.924037 0.843265
vt 0.922324 0.851043
vt 0.924256 0.850845
vt 0.930360 0.844647
vt 0.922906 0.852539
vt 0.283954 0.003465
vt 0.932285 0.844954
vt 0.278180 0.002660
vt 0.916913 0.853566
vt 0.926663 0.738289
vt 0.268611 0.108025
vt 0.924700 0.738407
vt 0.263107 0.107258
vt 0.920327 0.624959
vt 0.252028 0.220808
vt 0.918311 0.625103
vt 0.233129 0.341960
vt 0.912419 0.506958
vt 0.246839 0.220083
vt 0.239748 0.219084
vt 0.229165 0.341417
vt 0.255770 0.106236
vt 0.270620 0.001607
vt 0.908718 0.853902
vt 0.249630 0.105381
vt 0.887252 0.740150
vt 0.264190 0.000711
vt 0.892087 0.846860
vt 0.902091 0.853361
vt 0.902545 0.851838
vt 0.893973 0.846356
vt 0.900617 0.851805
vt 0.908749 0.852159
vt 0.902455 0.845953
vt 0.905267 0.399240
vt 0.217279 0.447006
vt 0.910431 0.507114
vt 0.903416 0.399398
vt 0.904828 0.507478
vt 0.898020 0.399711
vt 0.902835 0.507583
vt 0.912361 0.625477
vt 0.918518 0.738743
vt 0.910343 0.625582
vt 0.905227 0.625830
vt 0.916554 0.738839
vt 0.898891 0.507763
vt 0.893319 0.399809
vt 0.893239 0.508040
vt 0.888998 0.399886
vt 0.888797 0.508279
vt 0.886069 0.316146
vt 0.889719 0.316443
vt 0.891995 0.316630
vt 0.896160 0.399767
vt 0.893783 0.316703
vt 0.899157 0.316523
vt 0.900936 0.316335
vt 0.207426 0.526365
s 1
g gl5.012_Glasses_silver
usemtl Glasses_silver
f 82/102/79 81/101/80 83/103/81 129/162/82
f 86/107/83 85/106/84 81/101/80 82/102/79
f 81/101/80 84/104/85 96/119/86 83/103/81
f 85/106/84 87/108/87 84/104/85 81/101/80
f 92/114/88 91/113/89 88/110/90 89/111/91
f 90/112/92 88/110/90 91/113/89 94/116/93
f 153/192/94 93/115/95 91/113/89 92/114/88
f 94/116/93 91/113/89 93/115/95 95/117/96
f 95/117/96 96/118/86 84/105/85 94/116/93
f 94/116/93 84/105/85 87/109/87 90/112/92
f 95/117/96 93/115/95 100/124/97 97/120/98
f 97/120/98 98/121/99 96/118/86 95/117/96
f 99/123/100 132/167/101 98/121/99 97/120/98
f 97/120/98 100/124/97 102/126/102 99/123/100
f 101/125/103 100/124/97 93/115/95 153/192/94
f 104/129/104 102/126/102 100/124/97 101/125/103
f 105/130/105 103/127/106 102/126/102 104/129/104
f 99/123/100 102/126/102 103/127/106 135/172/107
f 106/131/108 109/134/109 105/130/105 104/129/104
f 107/132/110 106/131/108 104/129/104 101/125/103
f 147/186/111 108/133/108 106/131/108 107/132/110
f 108/133/108 111/136/112 109/134/109 106/131/108
f 109/134/109 110/135/113 137/175/114 105/130/105
f 111/136/112 113/138/115 110/135/113 109/134/109
f 148/187/116 112/137/117 111/136/112 108/133/108
f 112/137/117 115/140/118 113/138/115 111/136/112
f 114/139/119 113/138/115 115/140/118 117/143/120
f 136/174/121 110/135/113 113/138/115 114/139/119
f 115/140/118 112/137/117 116/141/122
f 118/144/123 117/143/120 115/140/118 116/141/122
f 117/143/120 119/146/124 120/150/125 114/139/119
f 117/143/120 118/144/123 119/146/124
f 121/152/126 123/154/127 120/149/125 119/147/124
f 122/153/128 121/151/126 119/148/124 118/145/123
f 125/157/129 124/155/130 121/151/126 122/153/128
f 124/156/130 127/160/131 123/154/127 121/152/126
f 139/178/132 126/159/133 124/155/130 125/157/129
f 126/158/133 129/162/82 127/160/131 124/156/130
f 127/160/131 128/161/131 130/163/134 123/154/127
f 129/162/82 83/103/81 128/161/131 127/160/131
f 138/177/135 82/102/79 129/162/82 126/158/133
f 128/161/131 98/122/99 132/166/101 130/163/134
f 83/103/81 96/119/86 98/122/99 128/161/131
f 123/154/127 130/163/134 131/164/136 120/149/125
f 130/163/134 132/166/101 133/168/137 131/164/136
f 135/172/107 133/169/137 132/167/101 99/123/100
f 136/174/121 131/165/136 133/170/137 134/171/138
f 134/171/138 133/170/137 135/173/107
f 134/171/138 135/173/107 103/128/106 137/175/114
f 134/171/138 137/175/114 110/135/113 136/174/121
f 137/175/114 103/128/106 105/130/105
f 114/139/119 120/150/125 131/165/136 136/174/121
f 140/179/139 138/176/135 126/159/133 139/178/132
f 139/178/132 141/180/140 142/181/141 140/179/139
f 125/157/129 144/183/142 141/180/140 139/178/132
f 157/196/143 142/181/141 141/180/140 143/182/144
f 143/182/144 141/180/140 144/183/142 146/185/145
f 146/185/145 144/183/142 145/184/146 148/187/116
f 122/153/128 145/184/146 144/183/142 125/157/129
f 143/182/144 146/185/145 147/186/111 149/188/147
f 146/185/145 148/187/116 108/133/108 147/186/111
f 148/187/116 145/184/146 116/142/122 112/137/117
f 149/188/147 147/186/111 107/132/110 151/190/148
f 150/189/149 149/188/147 151/190/148 152/191/150
f 157/196/143 143/182/144 149/188/147 150/189/149
f 152/191/150 151/190/148 153/192/94 92/114/88
f 151/190/148 107/132/110 101/125/103 153/192/94
f 155/194/151 150/189/149 152/191/150 154/193/152
f 154/193/152 152/191/150 92/114/88 89/111/91
f 156/195/153 157/196/143 150/189/149 155/194/151
f 156/195/153 158/197/154 142/181/141 157/196/143
f 140/179/139 142/181/141 158/197/154 159/198/155
f 159/198/155 160/199/156 138/176/135 140/179/139
f 160/200/156 86/107/83 82/102/79 138/177/135
f 118/145/123 116/142/122 145/184/146 122/153/128
