# Blender 3.3.1
# www.blender.org
mtllib arms.mtl
o Cube.002
v 0.068724 0.042784 -0.028421
v 0.072675 0.042784 -0.028306
v 0.068724 0.034546 -0.028421
v 0.069740 0.042557 -0.039336
v 0.073578 0.042557 -0.039336
v 0.069740 0.034659 -0.039336
v 0.071153 0.042501 -0.060143
v 0.074955 0.042501 -0.060143
v 0.071153 0.034716 -0.060143
v 0.071301 0.042501 -0.068716
v 0.075360 0.042501 -0.068716
v 0.071301 0.034716 -0.068716
v 0.071746 0.042614 -0.082532
v 0.075670 0.042614 -0.082532
v 0.071746 0.034206 -0.082449
v 0.072007 0.042663 -0.093283
v 0.076043 0.042663 -0.093283
v 0.072007 0.034157 -0.093200
v 0.072069 0.042463 -0.101181
v 0.076043 0.042463 -0.101181
v 0.072069 0.035203 -0.101097
v 0.071879 0.041841 -0.111715
v 0.075919 0.041841 -0.111715
v 0.071879 0.036563 -0.111631
v 0.075919 0.036563 -0.111631
v 0.076043 0.035203 -0.101097
v 0.076043 0.034157 -0.093200
v 0.075670 0.034206 -0.082449
v 0.075360 0.034716 -0.068716
v 0.074955 0.034716 -0.060143
v 0.073578 0.034589 -0.039337
v 0.072675 0.034546 -0.028306
vn -0.0291 -0.0000 0.9996
vn 0.0003 0.9998 -0.0207
vn -0.9957 -0.0000 -0.0927
vn -0.0000 1.0000 -0.0027
vn -0.9977 -0.0000 -0.0678
vn -0.0000 1.0000 -0.0000
vn -0.9999 -0.0000 -0.0173
vn -0.0000 1.0000 0.0082
vn -0.9995 -0.0002 -0.0323
vn -0.0000 1.0000 0.0046
vn -0.9997 -0.0002 -0.0243
vn -0.0000 0.9997 -0.0253
vn -1.0000 -0.0001 -0.0079
vn -0.0000 0.9983 -0.0589
vn -0.9998 0.0002 0.0180
vn -0.0000 -0.0159 -0.9999
vn -0.0000 -0.9918 -0.1280
vn 0.9999 -0.0002 -0.0118
vn -0.0000 -0.9913 -0.1313
vn 1.0000 -0.0000 -0.0000
vn 0.9994 0.0003 0.0347
vn -0.0000 -1.0000 0.0046
vn -0.0000 -0.9993 0.0371
vn 0.9997 0.0001 0.0225
vn 0.9989 -0.0000 0.0472
vn -0.0000 -1.0000 -0.0000
vn 0.9978 -0.0000 0.0660
vn -0.0092 -0.9999 -0.0050
vn 0.9967 -0.0000 0.0816
vn -0.0089 -0.9999 -0.0079
vt 0.375000 0.000000
vt 0.125000 0.750000
vt 0.375000 1.000000
vt 0.125000 0.500000
vt 0.375000 0.250000
vt 0.625000 0.000000
vt 0.625000 1.000000
vt 0.875000 0.750000
vt 0.375000 0.750000
vt 0.375000 0.500000
vt 0.625000 0.750000
vt 0.375000 0.750000
vt 0.375000 0.500000
vt 0.625000 0.750000
vt 0.375000 0.750000
vt 0.375000 0.500000
vt 0.625000 0.750000
vt 0.375000 0.750000
vt 0.375000 0.500000
vt 0.625000 0.750000
vt 0.375000 0.750000
vt 0.375000 0.500000
vt 0.625000 0.750000
vt 0.375000 0.750000
vt 0.375000 0.500000
vt 0.625000 0.750000
vt 0.375000 0.750000
vt 0.375000 0.500000
vt 0.625000 0.750000
vt 0.625000 0.500000
vt 0.625000 0.500000
vt 0.625000 0.500000
vt 0.625000 0.500000
vt 0.625000 0.500000
vt 0.625000 0.500000
vt 0.625000 0.500000
vt 0.625000 0.250000
vt 0.875000 0.500000
s 0
usemtl FrameMaterial
f 1/1/1 3/6/1 32/37/1 2/5/1
f 2/4/2 5/10/2 4/9/2 1/2/2
f 4/9/3 6/11/3 3/7/3 1/3/3
f 4/9/4 5/10/4 8/13/4 7/12/4
f 6/11/5 4/9/5 7/12/5 9/14/5
f 7/12/6 8/13/6 11/16/6 10/15/6
f 9/14/7 7/12/7 10/15/7 12/17/7
f 10/15/8 11/16/8 14/19/8 13/18/8
f 12/17/9 10/15/9 13/18/9 15/20/9
f 13/18/10 14/19/10 17/22/10 16/21/10
f 15/20/11 13/18/11 16/21/11 18/23/11
f 16/21/12 17/22/12 20/25/12 19/24/12
f 18/23/13 16/21/13 19/24/13 21/26/13
f 19/24/14 20/25/14 23/28/14 22/27/14
f 21/26/15 19/24/15 22/27/15 24/29/15
f 23/28/16 25/30/16 24/29/16 22/27/16
f 26/31/17 21/26/17 24/29/17 25/30/17
f 20/25/18 26/31/18 25/30/18 23/28/18
f 27/32/19 18/23/19 21/26/19 26/31/19
f 17/22/20 27/32/20 26/31/20 20/25/20
f 14/19/21 28/33/21 27/32/21 17/22/21
f 28/33/22 15/20/22 18/23/22 27/32/22
f 29/34/23 12/17/23 15/20/23 28/33/23
f 11/16/24 29/34/24 28/33/24 14/19/24
f 8/13/25 30/35/25 29/34/25 11/16/25
f 30/35/26 9/14/26 12/17/26 29/34/26
f 5/10/27 31/36/27 30/35/27 8/13/27
f 31/36/28 6/11/28 9/14/28 30/35/28
f 2/5/29 32/37/29 31/36/29 5/10/29
f 31/36/30 32/38/30 3/8/30 6/11/30
o Cube.007
v -0.064724 0.042784 -0.028421
v -0.068675 0.042784 -0.028306
v -0.065740 0.042557 -0.039336
v -0.064724 0.034546 -0.028421
v -0.065740 0.034659 -0.039336
v -0.068675 0.034546 -0.028306
v -0.069578 0.034589 -0.039337
v -0.069578 0.042557 -0.039336
v -0.070955 0.034716 -0.060143
v -0.070955 0.042501 -0.060143
v -0.067153 0.034716 -0.060143
v -0.071360 0.034716 -0.068716
v -0.071360 0.042501 -0.068716
v -0.067301 0.034716 -0.068716
v -0.071670 0.034206 -0.082449
v -0.067746 0.034206 -0.082449
v -0.072043 0.034157 -0.093200
v -0.071670 0.042614 -0.082532
v -0.067746 0.042614 -0.082532
v -0.072043 0.042663 -0.093283
v -0.068007 0.042663 -0.093283
v -0.072043 0.042463 -0.101181
v -0.068069 0.042463 -0.101181
v -0.071919 0.041841 -0.111715
v -0.072043 0.035203 -0.101097
v -0.071919 0.036563 -0.111631
v -0.068069 0.035203 -0.101097
v -0.068007 0.034157 -0.093200
v -0.067879 0.036563 -0.111631
v -0.067879 0.041841 -0.111715
v -0.067301 0.042501 -0.068716
v -0.067153 0.042501 -0.060143
vn 0.0291 -0.0000 0.9996
vn -0.0003 0.9998 -0.0207
vn 0.9957 -0.0000 -0.0927
vn 0.0089 -0.9999 -0.0079
vn -0.9967 -0.0000 0.0816
vn -0.9978 -0.0000 0.0660
vn 0.0092 -0.9999 -0.0050
vn -0.9989 -0.0000 0.0472
vn -0.0000 -1.0000 -0.0000
vn -0.9997 0.0001 0.0225
vn -0.0000 -0.9993 0.0371
vn -0.0000 -1.0000 0.0046
vn -0.9994 0.0003 0.0347
vn -0.0000 1.0000 0.0082
vn -0.0000 1.0000 0.0046
vn -0.0000 0.9997 -0.0253
vn -1.0000 -0.0000 -0.0000
vn -0.0000 0.9983 -0.0589
vn -0.9999 -0.0002 -0.0118
vn -0.0000 -0.9918 -0.1280
vn -0.0000 -0.9913 -0.1313
vn 1.0000 -0.0001 -0.0079
vn 0.9998 0.0002 0.0180
vn -0.0000 -0.0159 -0.9999
vn 0.9997 -0.0002 -0.0243
vn 0.9995 -0.0002 -0.0323
vn 0.9999 -0.0000 -0.0173
vn -0.0000 1.0000 -0.0000
vn 0.9977 -0.0000 -0.0678
vn -0.0000 1.0000 -0.0027
vt 0.375000 0.000000
vt 0.125000 0.750000
vt 0.375000 1.000000
vt 0.125000 0.500000
vt 0.375000 0.250000
vt 0.375000 0.750000
vt 0.625000 0.000000
vt 0.625000 1.000000
vt 0.875000 0.750000
vt 0.625000 0.750000
vt 0.875000 0.500000
vt 0.625000 0.250000
vt 0.625000 0.500000
vt 0.375000 0.500000
vt 0.625000 0.500000
vt 0.375000 0.500000
vt 0.625000 0.750000
vt 0.625000 0.500000
vt 0.375000 0.500000
vt 0.625000 0.750000
vt 0.625000 0.500000
vt 0.625000 0.750000
vt 0.625000 0.500000
vt 0.375000 0.500000
vt 0.375000 0.750000
vt 0.375000 0.500000
vt 0.375000 0.750000
vt 0.375000 0.500000
vt 0.375000 0.750000
vt 0.375000 0.500000
vt 0.625000 0.500000
vt 0.625000 0.500000
vt 0.625000 0.750000
vt 0.625000 0.750000
vt 0.625000 0.750000
vt 0.375000 0.750000
vt 0.375000 0.750000
vt 0.375000 0.750000
s 0
usemtl FrameMaterial
f 33/39/31 34/43/31 38/50/31 36/45/31
f 34/42/32 33/40/32 35/44/32 40/52/32
f 35/44/33 33/41/33 36/46/33 37/48/33
f 39/51/34 37/48/34 36/47/34 38/49/34
f 34/43/35 40/52/35 39/51/35 38/50/35
f 40/52/36 42/54/36 41/53/36 39/51/36
f 39/51/37 41/53/37 43/55/37 37/48/37
f 42/54/38 45/57/38 44/56/38 41/53/38
f 41/53/39 44/56/39 46/58/39 43/55/39
f 45/57/40 50/62/40 47/59/40 44/56/40
f 44/56/41 47/59/41 48/60/41 46/58/41
f 47/59/42 49/61/42 60/72/42 48/60/42
f 50/62/43 52/64/43 49/61/43 47/59/43
f 63/75/44 51/63/44 50/62/44 45/57/44
f 51/63/45 53/65/45 52/64/45 50/62/45
f 53/65/46 55/67/46 54/66/46 52/64/46
f 52/64/47 54/66/47 57/69/47 49/61/47
f 55/67/48 62/74/48 56/68/48 54/66/48
f 54/66/49 56/68/49 58/70/49 57/69/49
f 57/69/50 58/70/50 61/73/50 59/71/50
f 49/61/51 57/69/51 59/71/51 60/72/51
f 60/72/52 59/71/52 55/67/52 53/65/52
f 59/71/53 61/73/53 62/74/53 55/67/53
f 56/68/54 62/74/54 61/73/54 58/70/54
f 48/60/55 60/72/55 53/65/55 51/63/55
f 46/58/56 48/60/56 51/63/56 63/75/56
f 43/55/57 46/58/57 63/75/57 64/76/57
f 64/76/58 63/75/58 45/57/58 42/54/58
f 37/48/59 43/55/59 64/76/59 35/44/59
f 35/44/60 64/76/60 42/54/60 40/52/60
